<mxfile host="app.diagrams.net" modified="2022-07-29T08:04:46.512Z" agent="5.0 (Windows NT 10.0; Win64; x64) AppleWebKit/537.36 (KHTML, like Gecko) Chrome/103.0.0.0 Safari/537.36" etag="KgbfyekwqCn_aZVeJs0_" version="20.2.2" type="github" pages="2">
  <diagram id="07fea595-8f29-1299-0266-81d95cde20df" name="Canvas">
    <mxGraphModel dx="3616" dy="1440" grid="1" gridSize="10" guides="1" tooltips="1" connect="1" arrows="1" fold="1" page="1" pageScale="1" pageWidth="1169" pageHeight="827" background="none" math="0" shadow="0">
      <root>
        <mxCell id="0" />
        <mxCell id="1" parent="0" />
        <mxCell id="698" value="" style="rounded=0;whiteSpace=wrap;html=1;shadow=0;labelBackgroundColor=none;strokeColor=none;strokeWidth=3;fillColor=#e8edf0;fontSize=60;fontColor=#2F5B7C;align=left;" parent="1" vertex="1">
          <mxGeometry x="-2230" y="-280" width="2250" height="1598" as="geometry" />
        </mxCell>
        <mxCell id="700" value="&lt;font&gt;&lt;span style=&quot;font-size: 26px;&quot;&gt;Modules&lt;/span&gt;&lt;br&gt;&lt;/font&gt;&lt;font style=&quot;font-size: 12px&quot;&gt;&lt;br style=&quot;font-size: 12px&quot;&gt;&lt;ul&gt;&lt;li&gt;Management (Admin)&lt;/li&gt;&lt;li&gt;Member (Customer)&lt;br&gt;&lt;/li&gt;&lt;li&gt;Authority&lt;/li&gt;&lt;li&gt;Session&lt;/li&gt;&lt;li&gt;Cookie&lt;/li&gt;&lt;li&gt;Product&lt;/li&gt;&lt;li&gt;Payment&lt;/li&gt;&lt;li&gt;Rewards (point)&lt;/li&gt;&lt;li&gt;Order&lt;/li&gt;&lt;li&gt;Refund&lt;/li&gt;&lt;li&gt;Third Party APIs&lt;/li&gt;&lt;li&gt;Batch&lt;/li&gt;&lt;/ul&gt;&lt;font style=&quot;font-size: 12px&quot;&gt;&lt;br&gt;&lt;/font&gt;&lt;/font&gt;" style="rounded=0;whiteSpace=wrap;html=1;shadow=0;labelBackgroundColor=none;strokeColor=#e8edf0;strokeWidth=5;fillColor=#ffffff;fontSize=12;fontColor=#2F5B7C;align=left;verticalAlign=top;spacing=30;" parent="1" vertex="1">
          <mxGeometry x="-2210" y="220" width="360" height="280" as="geometry" />
        </mxCell>
        <mxCell id="708" value="E-Commerce Business Model Canvas" style="text;html=1;resizable=0;points=[];autosize=1;align=left;verticalAlign=top;spacingTop=-4;fontSize=60;fontColor=#2F5B7C;" parent="1" vertex="1">
          <mxGeometry x="-2210" y="110" width="1030" height="70" as="geometry" />
        </mxCell>
        <mxCell id="710" value="" style="shape=mxgraph.signs.travel.present;html=1;fillColor=#2F5B7C;strokeColor=none;verticalLabelPosition=bottom;verticalAlign=top;align=center;shadow=0;labelBackgroundColor=none;fontSize=12;fontColor=#2F5B7C;" parent="1" vertex="1">
          <mxGeometry x="-1150" y="119" width="31" height="40" as="geometry" />
        </mxCell>
        <mxCell id="711" value="" style="html=1;verticalLabelPosition=bottom;labelBackgroundColor=#ffffff;verticalAlign=top;strokeWidth=3;strokeColor=none;fillColor=#2F5B7C;shadow=0;dashed=0;shape=mxgraph.ios7.icons.heart;fontSize=12;fontColor=#2F5B7C;align=left;" parent="1" vertex="1">
          <mxGeometry x="-1099.9999999999995" y="127" width="41" height="36" as="geometry" />
        </mxCell>
        <mxCell id="715" value="" style="shadow=0;dashed=0;html=1;strokeColor=none;labelPosition=center;verticalLabelPosition=bottom;verticalAlign=top;shape=mxgraph.mscae.cloud.data_factory;fillColor=#2F5B7C;labelBackgroundColor=none;fontSize=10;fontColor=#2F5B7C;align=left;" parent="1" vertex="1">
          <mxGeometry x="-1036" y="113" width="50" height="50" as="geometry" />
        </mxCell>
        <mxCell id="719" value="" style="shadow=0;dashed=0;html=1;strokeColor=none;fillColor=#2F5B7C;labelPosition=center;verticalLabelPosition=bottom;verticalAlign=top;outlineConnect=0;shape=mxgraph.office.concepts.link;labelBackgroundColor=none;fontSize=10;fontColor=#000000;align=left;" parent="1" vertex="1">
          <mxGeometry x="-1922" y="241" width="61" height="21" as="geometry" />
        </mxCell>
        <mxCell id="zcM09F1-46-4bIGgWF5j-728" value="" style="group" parent="1" vertex="1" connectable="0">
          <mxGeometry x="-1820" y="440" width="410" height="205" as="geometry" />
        </mxCell>
        <mxCell id="zcM09F1-46-4bIGgWF5j-733" value="" style="group" parent="zcM09F1-46-4bIGgWF5j-728" vertex="1" connectable="0">
          <mxGeometry width="410" height="205" as="geometry" />
        </mxCell>
        <mxCell id="zcM09F1-46-4bIGgWF5j-735" value="" style="group" parent="zcM09F1-46-4bIGgWF5j-733" vertex="1" connectable="0">
          <mxGeometry width="410" height="205" as="geometry" />
        </mxCell>
        <mxCell id="zcM09F1-46-4bIGgWF5j-748" value="" style="group" parent="zcM09F1-46-4bIGgWF5j-735" vertex="1" connectable="0">
          <mxGeometry width="410" height="205" as="geometry" />
        </mxCell>
        <mxCell id="zcM09F1-46-4bIGgWF5j-749" value="" style="group" parent="zcM09F1-46-4bIGgWF5j-748" vertex="1" connectable="0">
          <mxGeometry width="410" height="205" as="geometry" />
        </mxCell>
        <mxCell id="zcM09F1-46-4bIGgWF5j-729" value="&lt;font style=&quot;&quot; color=&quot;#2f5b7c&quot;&gt;&lt;font style=&quot;font-size: 26px;&quot;&gt;&amp;nbsp; &amp;nbsp; Product&lt;br&gt;&lt;/font&gt;&lt;br&gt;&lt;span style=&quot;white-space: pre;&quot;&gt; &lt;/span&gt;Categories&lt;br&gt;&lt;span style=&quot;white-space: pre;&quot;&gt; &lt;/span&gt;Price&lt;span style=&quot;white-space: pre;&quot;&gt; &lt;/span&gt;&lt;br&gt;&lt;span style=&quot;white-space: pre;&quot;&gt; &lt;/span&gt;Quantity&lt;br&gt;&lt;span style=&quot;white-space: pre;&quot;&gt; &lt;/span&gt;Sale period&lt;br&gt;&lt;span style=&quot;white-space: pre;&quot;&gt; &lt;/span&gt;PIC (person in charge)&lt;br&gt;&lt;span style=&quot;white-space: pre;&quot;&gt; &lt;/span&gt;Vendor&lt;br&gt;&lt;br&gt;&lt;br&gt;&lt;br&gt;&lt;/font&gt;" style="rounded=0;whiteSpace=wrap;html=1;align=left;strokeColor=none;" parent="zcM09F1-46-4bIGgWF5j-749" vertex="1">
          <mxGeometry width="410" height="205" as="geometry" />
        </mxCell>
        <mxCell id="717" value="" style="shape=image;html=1;verticalAlign=top;verticalLabelPosition=bottom;labelBackgroundColor=#ffffff;imageAspect=0;aspect=fixed;image=https://cdn4.iconfinder.com/data/icons/evil-icons-user-interface/64/price-128.png;shadow=0;strokeColor=#e8edf0;strokeWidth=3;fillColor=#2F5B7C;gradientColor=none;fontSize=10;fontColor=#2F5B7C;align=left;" parent="zcM09F1-46-4bIGgWF5j-749" vertex="1">
          <mxGeometry x="351.5999999999999" y="5.110000000000014" width="58" height="58" as="geometry" />
        </mxCell>
        <mxCell id="zcM09F1-46-4bIGgWF5j-727" value="" style="group" parent="1" vertex="1" connectable="0">
          <mxGeometry x="-1820" y="220" width="410" height="205" as="geometry" />
        </mxCell>
        <mxCell id="zcM09F1-46-4bIGgWF5j-725" value="&lt;font style=&quot;&quot; color=&quot;#2f5b7c&quot;&gt;&lt;font style=&quot;font-size: 26px;&quot;&gt;&amp;nbsp; &amp;nbsp; Member&lt;br&gt;&lt;/font&gt;&lt;br&gt;&lt;span style=&quot;white-space: pre;&quot;&gt; &lt;/span&gt;Customer&lt;br&gt;&lt;span style=&quot;white-space: pre;&quot;&gt; &lt;/span&gt;Administrator&lt;br&gt;&lt;span style=&quot;white-space: pre;&quot;&gt; &lt;/span&gt;Role (authority)&lt;br&gt;&lt;span style=&quot;white-space: pre;&quot;&gt; &lt;/span&gt;Authentication (OAuth2)&lt;br&gt;&lt;span style=&quot;white-space: pre;&quot;&gt; &lt;/span&gt;Grouping&lt;br&gt;&lt;br&gt;&lt;br&gt;&lt;br&gt;&lt;/font&gt;" style="rounded=0;whiteSpace=wrap;html=1;align=left;strokeColor=none;" parent="zcM09F1-46-4bIGgWF5j-727" vertex="1">
          <mxGeometry width="410" height="205" as="geometry" />
        </mxCell>
        <mxCell id="720" value="" style="group" parent="zcM09F1-46-4bIGgWF5j-727" vertex="1" connectable="0">
          <mxGeometry x="338" y="16" width="55.2" height="40" as="geometry" />
        </mxCell>
        <mxCell id="721" value="" style="shadow=0;dashed=0;html=1;strokeColor=#FFFFFF;labelPosition=center;verticalLabelPosition=bottom;verticalAlign=top;outlineConnect=0;shape=mxgraph.office.users.user;fillColor=#2F5B7C;labelBackgroundColor=none;fontSize=10;fontColor=#000000;align=left;strokeWidth=2;" parent="720" vertex="1">
          <mxGeometry x="24.8" y="-4" width="36.800000000000004" height="40" as="geometry" />
        </mxCell>
        <mxCell id="722" value="" style="shadow=0;dashed=0;html=1;strokeColor=#FFFFFF;labelPosition=center;verticalLabelPosition=bottom;verticalAlign=top;outlineConnect=0;shape=mxgraph.office.users.user;fillColor=#2F5B7C;labelBackgroundColor=none;fontSize=10;fontColor=#000000;align=left;strokeWidth=2;" parent="720" vertex="1">
          <mxGeometry width="36.800000000000004" height="40" as="geometry" />
        </mxCell>
        <mxCell id="zcM09F1-46-4bIGgWF5j-736" value="" style="group" parent="1" vertex="1" connectable="0">
          <mxGeometry x="-1396" y="440" width="410" height="205" as="geometry" />
        </mxCell>
        <mxCell id="zcM09F1-46-4bIGgWF5j-743" value="" style="group" parent="zcM09F1-46-4bIGgWF5j-736" vertex="1" connectable="0">
          <mxGeometry width="410" height="205" as="geometry" />
        </mxCell>
        <mxCell id="zcM09F1-46-4bIGgWF5j-747" value="" style="group" parent="zcM09F1-46-4bIGgWF5j-743" vertex="1" connectable="0">
          <mxGeometry width="410" height="205" as="geometry" />
        </mxCell>
        <mxCell id="zcM09F1-46-4bIGgWF5j-737" value="&lt;font style=&quot;&quot; color=&quot;#2f5b7c&quot;&gt;&lt;font style=&quot;font-size: 26px;&quot;&gt;&amp;nbsp; &amp;nbsp; Order&lt;br&gt;&lt;/font&gt;&lt;br&gt;&lt;span style=&quot;white-space: pre;&quot;&gt; &lt;/span&gt;Order No. generator&lt;br&gt;&lt;span style=&quot;white-space: pre;&quot;&gt; &lt;/span&gt;Shipment&lt;br&gt;&lt;span style=&quot;white-space: pre;&quot;&gt; &lt;/span&gt;Status&lt;br&gt;&lt;span style=&quot;white-space: pre;&quot;&gt; &lt;/span&gt;Sales&lt;br&gt;&lt;span style=&quot;white-space: pre;&quot;&gt; &lt;/span&gt;PIC (person in charge)&lt;br&gt;&lt;span style=&quot;white-space: pre;&quot;&gt; &lt;/span&gt;Vendor&lt;br&gt;&lt;span style=&quot;white-space: pre;&quot;&gt; &lt;/span&gt;&lt;br&gt;&lt;br&gt;&lt;br&gt;&lt;/font&gt;" style="rounded=0;whiteSpace=wrap;html=1;align=left;strokeColor=none;" parent="zcM09F1-46-4bIGgWF5j-747" vertex="1">
          <mxGeometry width="410" height="205" as="geometry" />
        </mxCell>
        <mxCell id="718" value="" style="dashed=0;html=1;shape=mxgraph.aws3.checklist_cost;fillColor=#2F5B7C;gradientColor=none;shadow=0;labelBackgroundColor=none;strokeColor=none;strokeWidth=3;fontSize=10;fontColor=#2F5B7C;align=left;" parent="zcM09F1-46-4bIGgWF5j-747" vertex="1">
          <mxGeometry x="347.65" y="17" width="49.6" height="55.11" as="geometry" />
        </mxCell>
        <mxCell id="zcM09F1-46-4bIGgWF5j-744" value="" style="group" parent="1" vertex="1" connectable="0">
          <mxGeometry x="-1396" y="660" width="410" height="205" as="geometry" />
        </mxCell>
        <mxCell id="zcM09F1-46-4bIGgWF5j-745" value="&lt;font style=&quot;&quot; color=&quot;#2f5b7c&quot;&gt;&lt;font style=&quot;font-size: 26px;&quot;&gt;&amp;nbsp; &amp;nbsp; Payment&lt;br&gt;&lt;/font&gt;&lt;br&gt;&lt;span style=&quot;white-space: pre;&quot;&gt; &lt;/span&gt;Grouping&lt;br&gt;&lt;span style=&quot;white-space: pre;&quot;&gt; &lt;/span&gt;Method&lt;br&gt;&lt;span style=&quot;white-space: pre;&quot;&gt; &lt;/span&gt;Status&lt;br&gt;&lt;span style=&quot;white-space: pre;&quot;&gt; &lt;/span&gt;Amount&lt;br&gt;&lt;span style=&quot;white-space: pre;&quot;&gt; &lt;/span&gt;Batch&lt;br&gt;&lt;span style=&quot;white-space: pre;&quot;&gt; &lt;/span&gt;&lt;br&gt;&lt;span style=&quot;white-space: pre;&quot;&gt; &lt;/span&gt;&lt;br&gt;&lt;br&gt;&lt;br&gt;&lt;/font&gt;" style="rounded=0;whiteSpace=wrap;html=1;align=left;strokeColor=none;" parent="zcM09F1-46-4bIGgWF5j-744" vertex="1">
          <mxGeometry width="410" height="205" as="geometry" />
        </mxCell>
        <mxCell id="zcM09F1-46-4bIGgWF5j-742" value="" style="shape=image;aspect=fixed;image=data:image/svg+xml,PHN2ZyB4bWxucz0iaHR0cDovL3d3dy53My5vcmcvMjAwMC9zdmciIHZpZXdCb3g9IjAgMCA1NzYgNTEyIj48IS0tIEZvbnQgQXdlc29tZSBGcmVlIDUuMTUuNCBieSBAZm9udGF3ZXNvbWUgLSBodHRwczovL2ZvbnRhd2Vzb21lLmNvbSBMaWNlbnNlIC0gaHR0cHM6Ly9mb250YXdlc29tZS5jb20vbGljZW5zZS9mcmVlIChJY29uczogQ0MgQlkgNC4wLCBGb250czogU0lMIE9GTCAxLjEsIENvZGU6IE1JVCBMaWNlbnNlKSAtLT48cGF0aCBkPSJNNTY0IDE5MmM2LjYgMCAxMi01LjQgMTItMTJ2LTQwYzAtNi42LTUuNC0xMi0xMi0xMmgtNDhsMTguNi04MC42YzEuNy03LjUtNC0xNC43LTExLjctMTQuN2gtNDYuMWMtNS43IDAtMTAuNiA0LTExLjcgOS41TDQ1MC43IDEyOEgzNDAuOGwtMTkuNy04NmMtMS4zLTUuNS02LjEtOS4zLTExLjctOS4zaC00NGMtNS42IDAtMTAuNCAzLjgtMTEuNyA5LjNsLTIwIDg2SDEyNWwtMTcuNS04NS43Yy0xLjEtNS42LTYuMS05LjYtMTEuOC05LjZINTMuNmMtNy43IDAtMTMuNCA3LjEtMTEuNyAxNC42TDYwIDEyOEgxMmMtNi42IDAtMTIgNS40LTEyIDEydjQwYzAgNi42IDUuNCAxMiAxMiAxMmg2Mi4zbDcuMiAzMkgxMmMtNi42IDAtMTIgNS40LTEyIDEydjQwYzAgNi42IDUuNCAxMiAxMiAxMmg4My45bDQwLjkgMTgyLjZjMS4yIDUuNSA2LjEgOS40IDExLjcgOS40aDU2LjhjNS42IDAgMTAuNC0zLjkgMTEuNy05LjNMMjU5LjMgMjg4aDU1LjFsNDIuNCAxODIuN2MxLjMgNS40IDYuMSA5LjMgMTEuNyA5LjNoNTYuOGM1LjYgMCAxMC40LTMuOSAxMS43LTkuM0w0NzkuMSAyODhINTY0YzYuNiAwIDEyLTUuNCAxMi0xMnYtNDBjMC02LjYtNS40LTEyLTEyLTEyaC03MC4xbDcuNC0zMnpNMTgzLjggMzQyYy02LjIgMjUuOC02LjggNDcuMi03LjMgNDcuMmgtMS4xcy0xLjctMjItNi44LTQ3LjJsLTExLTU0aDM4Ljh6bTI3LjUtMTE4aC02Ni44bC02LjUtMzJoODAuOHptNjIuOSAwbDItOC42YzEuOS04IDMuNS0xNiA0LjgtMjMuNGgxMS44YzEuMyA3LjQgMi45IDE1LjQgNC44IDIzLjRsMiA4LjZ6bTEzMC45IDExOGMtNS4xIDI1LjItNi44IDQ3LjItNi44IDQ3LjJoLTEuMWMtLjYgMC0xLjEtMjEuNC03LjMtNDcuMmwtMTIuNC01NGgzOS4xem0yNS4yLTExOGgtNjcuNGwtNy4zLTMyaDgxLjZ6Ii8+PC9zdmc+;connectable=0;movable=1;verticalLabelPosition=bottom;resizable=1;rotatable=0;cloneable=0;deletable=1;recursiveResize=0;imageBackground=none;verticalAlign=top;fontSize=26;fontColor=#2F5B7C;" parent="zcM09F1-46-4bIGgWF5j-744" vertex="1">
          <mxGeometry x="354" y="12" width="43.25" height="43.25" as="geometry" />
        </mxCell>
        <mxCell id="709" value="" style="html=1;verticalLabelPosition=bottom;labelBackgroundColor=#ffffff;verticalAlign=top;shadow=0;dashed=0;strokeWidth=4;shape=mxgraph.ios7.misc.check;strokeColor=#2F5B7C;fillColor=#ffffff;gradientColor=none;fontSize=12;fontColor=#2F5B7C;align=left;" parent="1" vertex="1">
          <mxGeometry x="-950" y="138" width="31.25" height="25" as="geometry" />
        </mxCell>
      </root>
    </mxGraphModel>
  </diagram>
  <diagram id="hGyobkDXCdJMaZq6Y9Af" name="ERD">
    <mxGraphModel dx="1278" dy="613" grid="1" gridSize="10" guides="1" tooltips="1" connect="1" arrows="1" fold="1" page="1" pageScale="1" pageWidth="4681" pageHeight="3300" math="0" shadow="0">
      <root>
        <mxCell id="0" />
        <mxCell id="1" parent="0" />
        <mxCell id="CpGy9sX1BKviNFdYjGn5-1" value="User" style="swimlane;childLayout=stackLayout;horizontal=1;startSize=30;horizontalStack=0;rounded=1;fontSize=14;fontStyle=0;strokeWidth=2;resizeParent=0;resizeLast=1;shadow=0;dashed=0;align=center;" vertex="1" parent="1">
          <mxGeometry x="230" y="40" width="160" height="240" as="geometry">
            <mxRectangle x="230" y="110" width="70" height="30" as="alternateBounds" />
          </mxGeometry>
        </mxCell>
        <mxCell id="CpGy9sX1BKviNFdYjGn5-2" value="+firstName&#xa;+lastName&#xa;+age&#xa;+gender&#xa;+cellphone&#xa;+tel&#xa;+email&#xa;+street1&#xa;+street2&#xa;+city&#xa;+province&#xa;+postalCode&#xa;+password&#xa;+level" style="align=left;strokeColor=none;fillColor=none;spacingLeft=4;fontSize=12;verticalAlign=top;resizable=0;rotatable=0;part=1;" vertex="1" parent="CpGy9sX1BKviNFdYjGn5-1">
          <mxGeometry y="30" width="160" height="210" as="geometry" />
        </mxCell>
        <mxCell id="CpGy9sX1BKviNFdYjGn5-40" style="edgeStyle=orthogonalEdgeStyle;rounded=0;orthogonalLoop=1;jettySize=auto;html=1;exitX=0;exitY=0.5;exitDx=0;exitDy=0;entryX=1.02;entryY=0.069;entryDx=0;entryDy=0;entryPerimeter=0;" edge="1" parent="1" source="CpGy9sX1BKviNFdYjGn5-9" target="CpGy9sX1BKviNFdYjGn5-1">
          <mxGeometry relative="1" as="geometry" />
        </mxCell>
        <mxCell id="CpGy9sX1BKviNFdYjGn5-9" value="Customer" style="swimlane;childLayout=stackLayout;horizontal=1;startSize=30;horizontalStack=0;rounded=1;fontSize=14;fontStyle=0;strokeWidth=2;resizeParent=0;resizeLast=1;shadow=0;dashed=0;align=center;" vertex="1" parent="1">
          <mxGeometry x="520" y="40" width="160" height="60" as="geometry" />
        </mxCell>
        <mxCell id="CpGy9sX1BKviNFdYjGn5-10" value="+id" style="align=left;strokeColor=none;fillColor=none;spacingLeft=4;fontSize=12;verticalAlign=top;resizable=0;rotatable=0;part=1;" vertex="1" parent="CpGy9sX1BKviNFdYjGn5-9">
          <mxGeometry y="30" width="160" height="30" as="geometry" />
        </mxCell>
        <mxCell id="CpGy9sX1BKviNFdYjGn5-19" style="edgeStyle=orthogonalEdgeStyle;rounded=0;orthogonalLoop=1;jettySize=auto;html=1;exitX=0;exitY=0.25;exitDx=0;exitDy=0;" edge="1" parent="1" source="CpGy9sX1BKviNFdYjGn5-16">
          <mxGeometry relative="1" as="geometry">
            <mxPoint x="392" y="150" as="targetPoint" />
            <Array as="points" />
          </mxGeometry>
        </mxCell>
        <mxCell id="CpGy9sX1BKviNFdYjGn5-16" value="Admin" style="swimlane;childLayout=stackLayout;horizontal=1;startSize=30;horizontalStack=0;rounded=1;fontSize=14;fontStyle=0;strokeWidth=2;resizeParent=0;resizeLast=1;shadow=0;dashed=0;align=center;" vertex="1" parent="1">
          <mxGeometry x="520" y="135" width="160" height="60" as="geometry" />
        </mxCell>
        <mxCell id="CpGy9sX1BKviNFdYjGn5-17" value="+id" style="align=left;strokeColor=none;fillColor=none;spacingLeft=4;fontSize=12;verticalAlign=top;resizable=0;rotatable=0;part=1;" vertex="1" parent="CpGy9sX1BKviNFdYjGn5-16">
          <mxGeometry y="30" width="160" height="30" as="geometry" />
        </mxCell>
        <mxCell id="CpGy9sX1BKviNFdYjGn5-20" value="Product" style="swimlane;childLayout=stackLayout;horizontal=1;startSize=30;horizontalStack=0;rounded=1;fontSize=14;fontStyle=0;strokeWidth=2;resizeParent=0;resizeLast=1;shadow=0;dashed=0;align=center;" vertex="1" parent="1">
          <mxGeometry x="230" y="320" width="160" height="190" as="geometry" />
        </mxCell>
        <mxCell id="CpGy9sX1BKviNFdYjGn5-21" value="+productId&#xa;+name&#xa;+unitPrice&#xa;+unitQuantity&#xa;+category&#xa;+status" style="align=left;strokeColor=none;fillColor=none;spacingLeft=4;fontSize=12;verticalAlign=top;resizable=0;rotatable=0;part=1;" vertex="1" parent="CpGy9sX1BKviNFdYjGn5-20">
          <mxGeometry y="30" width="160" height="160" as="geometry" />
        </mxCell>
        <mxCell id="CpGy9sX1BKviNFdYjGn5-30" value="Payment" style="swimlane;childLayout=stackLayout;horizontal=1;startSize=30;horizontalStack=0;rounded=1;fontSize=14;fontStyle=0;strokeWidth=2;resizeParent=0;resizeLast=1;shadow=0;dashed=0;align=center;" vertex="1" parent="1">
          <mxGeometry x="590" y="320" width="160" height="270" as="geometry" />
        </mxCell>
        <mxCell id="CpGy9sX1BKviNFdYjGn5-31" value="+paymentId&#xa;+orderId&#xa;+supplierId&#xa;+customerId&#xa;+status&#xa;+paymentMethod&#xa;+amount&#xa;+paymentDate" style="align=left;strokeColor=none;fillColor=none;spacingLeft=4;fontSize=12;verticalAlign=top;resizable=0;rotatable=0;part=1;" vertex="1" parent="CpGy9sX1BKviNFdYjGn5-30">
          <mxGeometry y="30" width="160" height="240" as="geometry" />
        </mxCell>
        <mxCell id="CpGy9sX1BKviNFdYjGn5-34" value="Order" style="swimlane;childLayout=stackLayout;horizontal=1;startSize=30;horizontalStack=0;rounded=1;fontSize=14;fontStyle=0;strokeWidth=2;resizeParent=0;resizeLast=1;shadow=0;dashed=0;align=center;" vertex="1" parent="1">
          <mxGeometry x="410" y="320" width="160" height="270" as="geometry" />
        </mxCell>
        <mxCell id="CpGy9sX1BKviNFdYjGn5-35" value="+orderId&#xa;+customerId&#xa;+status&#xa;+orderAmount&#xa;+currency&#xa;+taxAmount&#xa;+unitPrice&#xa;+shippingAmount&#xa;+discountType&#xa;+orderDiscount&#xa;+shippingDiscount&#xa;+subtotal&#xa;+total&#xa;+orderDate&#xa;" style="align=left;strokeColor=none;fillColor=none;spacingLeft=4;fontSize=12;verticalAlign=top;resizable=0;rotatable=0;part=1;" vertex="1" parent="CpGy9sX1BKviNFdYjGn5-34">
          <mxGeometry y="30" width="160" height="240" as="geometry" />
        </mxCell>
        <mxCell id="CpGy9sX1BKviNFdYjGn5-36" value="Shipment" style="swimlane;childLayout=stackLayout;horizontal=1;startSize=30;horizontalStack=0;rounded=1;fontSize=14;fontStyle=0;strokeWidth=2;resizeParent=0;resizeLast=1;shadow=0;dashed=0;align=center;" vertex="1" parent="1">
          <mxGeometry x="770" y="320" width="160" height="270" as="geometry" />
        </mxCell>
        <mxCell id="CpGy9sX1BKviNFdYjGn5-37" value="+shipmentId&#xa;+orderId&#xa;+shippingAmount&#xa;+shippingDiscount&#xa;+discountType&#xa;+currency&#xa;+geocode&#xa;+street1&#xa;+street2&#xa;+city&#xa;+province&#xa;+country&#xa;+postalCode&#xa;+postalCodeType&#xa;+shipperId" style="align=left;strokeColor=none;fillColor=none;spacingLeft=4;fontSize=12;verticalAlign=top;resizable=0;rotatable=0;part=1;" vertex="1" parent="CpGy9sX1BKviNFdYjGn5-36">
          <mxGeometry y="30" width="160" height="240" as="geometry" />
        </mxCell>
      </root>
    </mxGraphModel>
  </diagram>
</mxfile>
